<?xml version="1.0" standalone="no"?><!DOCTYPE svg PUBLIC "-//W3C//DTD SVG 1.1//EN" "http://www.w3.org/Graphics/SVG/1.1/DTD/svg11.dtd"><svg t="1546918057332" class="icon" style="" viewBox="0 0 1024 1024" version="1.1" xmlns="http://www.w3.org/2000/svg" p-id="1155" xmlns:xlink="http://www.w3.org/1999/xlink" width="200" height="200"><defs><style type="text/css"></style></defs><path d="M739.328 915.968 284.672 915.968c-40.448 0-73.216-32.768-73.216-73.216L211.456 276.48c0-16.384 13.312-29.184 29.184-29.184s29.184 13.312 29.184 29.184l0 566.272c0 8.192 6.656 14.848 14.848 14.848l454.144 0c8.192 0 14.848-6.656 14.848-14.848L753.664 276.48c0-16.384 13.312-29.184 29.184-29.184s29.184 13.312 29.184 29.184l0 566.272C812.544 883.2 779.264 915.968 739.328 915.968z" p-id="1156"></path><path d="M871.936 283.648 152.064 283.648c-16.384 0-29.184-13.312-29.184-29.184 0-16.384 13.312-29.184 29.184-29.184l720.384 0c16.384 0 29.184 13.312 29.184 29.184C901.632 270.336 888.32 283.648 871.936 283.648z" p-id="1157"></path><path d="M434.688 784.384c-16.384 0-29.184-13.312-29.184-29.184L405.504 374.272c0-16.384 13.312-29.184 29.184-29.184s29.184 13.312 29.184 29.184l0 380.928C463.872 771.072 450.56 784.384 434.688 784.384z" p-id="1158"></path><path d="M607.744 784.384c-16.384 0-29.184-13.312-29.184-29.184L578.56 374.272c0-16.384 13.312-29.184 29.184-29.184s29.184 13.312 29.184 29.184l0 380.928C637.44 771.072 624.128 784.384 607.744 784.384z" p-id="1159"></path><path d="M570.368 166.4 453.632 166.4c-16.384 0-29.184-13.312-29.184-29.184s13.312-29.184 29.184-29.184l117.248 0c16.384 0 29.184 13.312 29.184 29.184S586.752 166.4 570.368 166.4z" p-id="1160"></path></svg>